<?xml version="1.0" encoding="UTF-8" standalone="no"?>
<svg
   xmlns:dc="http://purl.org/dc/elements/1.1/"
   xmlns:cc="http://creativecommons.org/ns#"
   xmlns:rdf="http://www.w3.org/1999/02/22-rdf-syntax-ns#"
   xmlns:svg="http://www.w3.org/2000/svg"
   xmlns="http://www.w3.org/2000/svg"
   xmlns:sodipodi="http://sodipodi.sourceforge.net/DTD/sodipodi-0.dtd"
   xmlns:inkscape="http://www.inkscape.org/namespaces/inkscape"
   width="768"
   height="576"
   viewBox="-0.05 -0.05 7.68 5.76"
   version="1.1"
   id="svg6"
   sodipodi:docname="Chess_Board.svg"
   inkscape:version="0.92.4 (5da689c313, 2019-01-14)"
   inkscape:export-filename="\\vmware-host\Shared Folders\Scrivania\monitor patterns\Chess_Board-320x240.png"
   inkscape:export-xdpi="40"
   inkscape:export-ydpi="40">
  <metadata
     id="metadata12">
    <rdf:RDF>
      <cc:Work
         rdf:about="">
        <dc:format>image/svg+xml</dc:format>
        <dc:type
           rdf:resource="http://purl.org/dc/dcmitype/StillImage" />
        <dc:title></dc:title>
      </cc:Work>
    </rdf:RDF>
  </metadata>
  <defs
     id="defs10" />
  <sodipodi:namedview
     pagecolor="#ffffff"
     bordercolor="#666666"
     borderopacity="1"
     objecttolerance="10"
     gridtolerance="10"
     guidetolerance="10"
     inkscape:pageopacity="0"
     inkscape:pageshadow="2"
     inkscape:window-width="1440"
     inkscape:window-height="837"
     id="namedview8"
     showgrid="false"
     fit-margin-top="0"
     fit-margin-left="0"
     fit-margin-right="0"
     fit-margin-bottom="0"
     inkscape:zoom="0.58271605"
     inkscape:cx="83.444997"
     inkscape:cy="292.71989"
     inkscape:window-x="-8"
     inkscape:window-y="-8"
     inkscape:window-maximized="1"
     inkscape:current-layer="svg6" />
  <rect
     x="-0.067161016"
     y="-0.063728772"
     width="9.0171614"
     height="5.7737288"
     id="rect2"
     style="stroke-width:0.80171609" />
  <path
     d="m -0.07,-0.08372877 h 8 v 1 h -8 z m 0,1.99999997 h 8 v 1 h -8 z m 0,2 h 8 v 1 h -8 z m 0,2 h 8 v 1 h -8 z m 1,-5.99999997 V 7.9162712 h 1 v -7.99999997 z m 2,0 V 7.9162712 h 1 v -7.99999997 z m 2,0 V 7.9162712 h 1 v -7.99999997 z m 2,0 V 7.9162712 h 1 v -7.99999997 z"
     id="path4"
     inkscape:connector-curvature="0"
     style="fill:#ffffff" />
  <path
     d="m 7.952839,-0.0837288 h 8 v 1 h -8 z m 0,2 h 8 v 1 h -8 z m 0,2 h 8 v 1 h -8 z m 0,2 h 8 v 1 h -8 z m 1,-6 v 8 h 1 v -8 z m 2,0 v 8 h 1 v -8 z m 2,0 v 8 h 1 v -8 z m 2,0 v 8 h 1 v -8 z"
     id="path4-7"
     inkscape:connector-curvature="0"
     style="fill:#ffffff;stroke-width:1" />
</svg>
